<svg width="72" height="72" viewBox="0 0 72 72" fill="none" xmlns="http://www.w3.org/2000/svg">
<rect width="72" height="72" rx="20" fill="url(#paint0_linear_2_1)"/>
<path d="M27.5 34C31.0899 34 34 31.0899 34 27.5C34 23.9101 31.0899 21 27.5 21C23.9101 21 21 23.9101 21 27.5C21 31.0899 23.9101 34 27.5 34Z" fill="white"/>
<path d="M44 34C47.5899 34 50.5 31.0899 50.5 27.5C50.5 23.9101 47.5899 21 44 21C40.4101 21 37.5 23.9101 37.5 27.5C37.5 31.0899 40.4101 34 44 34Z" fill="white"/>
<path d="M19 43.5C19 38.8056 22.8056 35 27.5 35C32.1944 35 36 38.8056 36 43.5V47H19V43.5Z" fill="white"/>
<path d="M53 47H37V43.5C37 40.1863 39.6863 37.5 43 37.5H49.5C52.8137 37.5 55.5 40.1863 55.5 43.5V47H53Z" fill="white"/>
<defs>
<linearGradient id="paint0_linear_2_1" x1="12" y1="60" x2="60" y2="12" gradientUnits="userSpaceOnUse">
<stop stop-color="#8B5CF6"/>
<stop offset="1" stop-color="#EC4899"/>
</linearGradient>
</defs>
</svg>
