<svg width="72" height="72" viewBox="0 0 72 72" fill="none" xmlns="http://www.w3.org/2000/svg">
<rect width="72" height="72" rx="20" fill="url(#paint0_linear_4_1)"/>
<path d="M21 27L23.5 45C23.8 47 25.5 48.5 27.5 48.5H44.5C46.5 48.5 48.2 47 48.5 45L51 27H21Z" fill="white"/>
<path d="M46.5 24L44.77 19.45C44.32 18.22 43.12 17.38 41.81 17.38H30.19C28.88 17.38 27.68 18.22 27.23 19.45L25.5 24H46.5Z" fill="white"/>
<path d="M32 33C33.3807 33 34.5 31.8807 34.5 30.5C34.5 29.1193 33.3807 28 32 28C30.6193 28 29.5 29.1193 29.5 30.5C29.5 31.8807 30.6193 33 32 33Z" fill="#0F172A"/>
<path d="M40 33C41.3807 33 42.5 31.8807 42.5 30.5C42.5 29.1193 41.3807 28 40 28C38.6193 28 37.5 29.1193 37.5 30.5C37.5 31.8807 38.6193 33 40 33Z" fill="#0F172A"/>
<defs>
<linearGradient id="paint0_linear_4_1" x1="12" y1="60" x2="60" y2="12" gradientUnits="userSpaceOnUse">
<stop stop-color="#22C55E"/>
<stop offset="1" stop-color="#0EA5E9"/>
</linearGradient>
</defs>
</svg>
